[img]http://img152.imageshack.us/img152/7446/fastandthefurious.jpg[/img]

[b][size=200][color=black]PLOT[/color][/size][/b]

[code]An undercover cop infiltrates an underworld subculture 
of Los Angeles street racers looking to bust a hijacking ring, and 
soon begins to question his loyalties when his new street racing 
friends become the prime suspects.[/code]

[b][size=200][color=black]IMDB[/color][/size][/b]

[code]http://www.imdb.com/title/tt0232500/[/code]

[b][size=200][color=black]MOVIE INFO[/color][/size][/b]

[code]The Fast and the Furious [2001] BRRip x264 AAC-V3nom

Format                                   : MPEG-4
Format profile                           : Base Media / Version 2
Codec ID                                 : mp42
File size                                : 320 MiB
Duration                                 : 1h 46mn
Overall bit rate mode                    : Variable
Overall bit rate                         : 419 Kbps
Encoded date                             : UTC 2013-02-25 13:37:04
Tagged date                              : UTC 2013-02-25 14:29:36

Video
ID                                       : 1
Format                                   : AVC
Format/Info                              : Advanced Video Codec
Format profile                           : Main@L2.1
Format settings, CABAC                   : Yes
Format settings, ReFrames                : 4 frames
Codec ID                                 : avc1
Codec ID/Info                            : Advanced Video Coding
Duration                                 : 1h 46mn
Bit rate mode                            : Variable
Bit rate                                 : 319 Kbps
Width                                    : 640 pixels
Height                                   : 256 pixels
Display aspect ratio                     : 2.35:1
Frame rate mode                          : Variable
Frame rate                               : 23.976 fps
Minimum frame rate                       : 5.994 fps
Maximum frame rate                       : 23.981 fps
Color space                              : YUV
Chroma subsampling                       : 4:2:0
Bit depth                                : 8 bits
Scan type                                : Progressive
Bits/(Pixel*Frame)                       : 0.081
Stream size                              : 243 MiB (76%)
Writing library                          : x264 core 112

Audio
ID                                       : 2
Format                                   : AAC
Format/Info                              : Advanced Audio Codec
Format profile                           : LC
Codec ID                                 : 40
Duration                                 : 1h 46mn
Bit rate mode                            : Variable
Bit rate                                 : 96.0 Kbps
Maximum bit rate                         : 156 Kbps
Channel(s)                               : 2 channels
Channel positions                        : Front: L R
Sampling rate                            : 48.0 KHz
Compression mode                         : Lossy
Delay relative to video                  : 209ms
Stream size                              : 73.4 MiB (23%)
Language                                 : English
Encoded date                             : UTC 2013-02-25 13:37:04
Tagged date                              : UTC 2013-02-25 14:29:31[/code]

[b][size=200][color=black]SOURCE[/color][/size][/b]

[code]The Fast and the Furious (2001) 720p BrRip x264 - 650MB - YIFY(Thanks)[/code]

[b][size=200][color=black]SCREENSHOTS[/color][/size][/b]

[img]http://img13.imageshack.us/img13/1777/thefastandthefurious200f.jpg[/img]

[img]http://kastatic.com/i2/users/133df62bbf28e62494bb17fe11078f1a.gif[/img][img]http://kastatic.com/i2/users/133df62bbf28e62494bb17fe11078f1a.gif[/img]